<?xml version="1.0" standalone="no"?>
<!DOCTYPE svg PUBLIC "-//W3C//DTD SVG 20010904//EN"
 "http://www.w3.org/TR/2001/REC-SVG-20010904/DTD/svg10.dtd">
<svg version="1.0" xmlns="http://www.w3.org/2000/svg"
 width="812.000000pt" height="812.000000pt" viewBox="0 0 812.000000 812.000000"
 preserveAspectRatio="xMidYMid meet">
<metadata>
Created by potrace 1.11, written by Peter Selinger 2001-2013
</metadata>
<g transform="translate(0.000000,812.000000) scale(0.100000,-0.100000)"
fill="#000000" stroke="none">
<path d="M3669 8116 c-2 -2 -24 -6 -49 -9 -268 -33 -504 -183 -614 -391 -14
-27 -30 -54 -35 -60 -4 -6 -13 -24 -18 -41 l-10 -30 -104 -1 c-160 -1 -364
-27 -437 -55 -15 -6 -36 -12 -46 -15 -76 -15 -250 -100 -321 -157 -66 -53
-144 -134 -180 -188 -17 -24 -33 -45 -37 -47 -5 -2 -8 -10 -8 -17 0 -7 -4 -15
-9 -17 -10 -3 -176 -249 -226 -333 -54 -92 -64 -110 -111 -205 -53 -108 -93
-215 -99 -269 -3 -20 -7 -50 -10 -68 -5 -26 -2 -34 21 -50 70 -48 127 -125
175 -238 14 -33 13 -30 32 -130 13 -69 14 -260 3 -455 -14 -235 -16 -449 -4
-460 79 -66 100 -97 100 -145 0 -35 -37 -125 -52 -125 -5 0 -26 -17 -48 -38
-44 -42 -58 -85 -43 -125 6 -15 8 -27 6 -27 -3 0 -74 45 -157 99 l-152 99 -20
-26 c-11 -15 -24 -31 -28 -37 -4 -5 -21 -26 -38 -46 l-30 -37 0 -471 0 -471
48 -67 c71 -99 190 -264 212 -293 10 -14 64 -88 119 -165 55 -77 104 -144 108
-150 5 -5 25 -34 47 -62 39 -55 55 -63 76 -38 28 33 42 19 54 -55 3 -19 8 -46
11 -60 3 -14 7 -42 10 -64 3 -21 7 -41 9 -45 4 -5 9 -32 21 -106 10 -62 18
-107 31 -168 7 -37 13 -71 12 -75 -1 -4 5 -27 12 -52 8 -25 14 -47 15 -50 0
-3 7 -16 15 -30 8 -14 15 -27 15 -30 0 -3 8 -18 17 -35 9 -16 22 -41 30 -55
31 -58 134 -226 145 -238 6 -6 15 -21 18 -32 3 -11 11 -20 16 -20 5 0 9 -6 9
-13 0 -7 7 -22 15 -32 8 -11 46 -67 84 -125 39 -58 77 -112 85 -121 9 -9 16
-19 16 -22 0 -32 255 -295 530 -548 206 -188 223 -204 240 -219 148 -129 163
-145 259 -266 8 -9 82 -131 134 -219 20 -33 40 -50 61 -53 105 -12 1076 -26
1076 -14 0 4 12 21 28 38 47 53 76 88 112 134 19 25 40 52 47 60 10 12 63 80
126 160 7 8 28 35 47 60 19 25 37 47 40 50 3 3 39 48 81 100 42 52 88 108 103
123 14 15 26 30 26 33 0 7 267 271 346 342 38 34 77 74 86 90 9 15 24 36 33
47 15 20 124 186 154 236 9 14 64 103 124 197 59 94 107 176 107 182 0 5 5 10
10 10 6 0 15 12 20 26 6 14 24 45 40 69 17 24 30 46 30 49 0 3 17 32 37 63 58
89 62 100 68 166 3 34 7 78 10 97 2 19 7 60 10 90 3 30 8 71 10 90 2 19 7 67
11 105 4 39 8 79 10 90 1 11 3 26 3 34 1 11 5 11 23 -1 22 -15 25 -11 128 131
58 81 114 158 125 173 11 14 27 36 35 48 8 12 81 113 163 225 l147 204 0 471
0 472 -61 74 -60 74 -54 -40 c-30 -22 -56 -40 -59 -40 -3 0 -35 -21 -71 -46
-37 -25 -69 -43 -72 -41 -2 3 2 18 10 34 9 16 19 47 22 68 4 22 10 49 12 60
23 111 21 418 -3 457 -28 45 -21 552 10 751 3 20 8 52 11 70 2 17 7 42 9 53 2
12 7 37 10 56 3 19 19 75 36 124 45 128 58 172 54 177 -2 2 -6 28 -9 58 -7 75
-10 87 -41 165 -61 153 -204 362 -339 498 -78 79 -211 172 -291 206 -27 12
-58 25 -69 30 -48 22 -95 39 -95 35 0 -3 -11 0 -25 5 -39 15 -94 26 -171 34
-29 3 -67 23 -140 73 -138 95 -273 183 -282 183 -5 0 -17 8 -28 18 -11 9 -37
26 -59 37 -22 11 -42 22 -45 25 -3 3 -23 14 -45 25 -22 11 -42 22 -45 25 -10
11 -288 144 -375 180 -119 49 -128 53 -140 56 -5 1 -41 14 -80 28 -60 22 -99
35 -195 61 -8 2 -46 11 -85 20 -38 9 -79 18 -90 20 -11 3 -40 8 -65 11 -24 3
-56 8 -70 11 -32 5 -346 13 -351 9z"/>
</g>
</svg>
