<svg xmlns="http://www.w3.org/2000/svg" width="1068.334" height="270.702" viewBox="0 0 1068.334 270.702"><g transform="translate(-297.054 -394.628)"><path d="M119.076,158.517V197.1H0V6.413H41.715v152.1Zm18.449-90.73h40.14V197.1h-40.14ZM157.6,3.566a23.267,23.267,0,1,1-16.47,6.822A23.267,23.267,0,0,1,157.6,3.566M431.021,67.745h49.14l-52.686,59.778,51.591,69.518H428.623l-42.591-63.866h-.521v63.866H345.443V6.4h40.13V120.337Zm-231.164.073h38.524V85.547h.532a42.153,42.153,0,0,1,37.982-20.858c40.672,0,48.171,26.75,48.171,61.53v70.832h-40.12V134.186c0-14.986-.271-34.248-20.858-34.248-20.858,0-24.07,16.321-24.07,33.174V197H199.857V67.828Zm364.851,49.568a24.059,24.059,0,0,0-24.633-24.612,26.76,26.76,0,0,0-28.345,24.612Zm33.977,57.244a70.655,70.655,0,0,1-54.9,25.7c-40.13,0-72.24-26.771-72.24-68.246S503.658,63.9,543.787,63.9c37.544,0,61.008,26.75,61.008,68.183v12.577H511.677A29.962,29.962,0,0,0,541.921,169.8a34.133,34.133,0,0,0,28.627-15.789Zm89.687-75.588a30.41,30.41,0,0,0-32.089,32.9,32.121,32.121,0,1,0,64.22,0,30.421,30.421,0,0,0-32.131-32.9m69.07,97.937H720.555V179.844h-.521a50.475,50.475,0,0,1-39.88,20.336c-38.586,0-63.96-27.814-63.96-67.161,0-36.125,22.474-69.31,59.444-69.31a48.348,48.348,0,0,1,41.173,17.124h.521V6.4h40.151Z" transform="translate(297.054 428.252)" fill="#272727"/><path d="M250.894,270.7H19.81A19.815,19.815,0,0,1,0,251.178V19.5A19.732,19.732,0,0,1,19.731,0l.251,0H250.893A19.813,19.813,0,0,1,270.7,19.5V251.178A19.814,19.814,0,0,1,250.894,270.7ZM169.687,133.5a25.237,25.237,0,0,1,6.807.857,16.933,16.933,0,0,1,5.137,2.388,17.482,17.482,0,0,1,6.2,8.264,39.737,39.737,0,0,1,2.345,11.074c.336,3.792.364,7.686.364,11.675v62.927H230.7V159.771a161.634,161.634,0,0,0-.853-17.715,77.2,77.2,0,0,0-3.1-15.353c-3.008-9.3-7.723-16.089-14.412-20.756a39.891,39.891,0,0,0-12.655-5.706,67.318,67.318,0,0,0-17.15-2c-.532-.02-1.071-.03-1.6-.03A42.132,42.132,0,0,0,144.543,119.1h-.532v-17.6H105.5V230.582h40.089V166.675a77.6,77.6,0,0,1,.833-12.294,32.384,32.384,0,0,1,3.4-10.614,18.617,18.617,0,0,1,7.307-7.454A25.755,25.755,0,0,1,169.687,133.5ZM40.13,101.495V230.675H80.281V101.495ZM60.2,37.274a23.277,23.277,0,1,0-.009,46.553h.012a23.277,23.277,0,1,0,.009-46.553Z" transform="translate(1094.688 394.627)" fill="#272727"/></g></svg>