<svg xmlns="http://www.w3.org/2000/svg" xmlns:xlink="http://www.w3.org/1999/xlink" width="294.79" height="406.497" viewBox="0 0 294.79 406.497"><defs><clipPath id="a"><path d="M92,105.5,166,86l78,3.5L316.5,135l-9.87,100.88L311,252.5l-7.84,73.83c-14.16,21.92-28.93,48.5-34.66,53.17-20,16.32-33.25,38-48.83,55.65,0,0-50.18-.35-53.92-1.11-2.43-.5-6.71-12.54-15.25-20.79,0,0-44-38.75-47.5-46.75s-22.43-27.08-23.55-46.8c0,0-5.45-82.2-3-103.2s-12-83-7-90S82.08,109.12,92,105.5Z" fill="none"/></clipPath><clipPath id="b"><path d="M309.67,85.67c-13.58-15.45-32.21-17.6-37-18C221,30.12,170,18.24,145.67,38.33c-4.35,3.59-8.76,9-12,17.34-3.49-.29-37.84-2.57-54,20-9.84,13.73-26,36.41-25.48,50.33,0,0,13.18,5.48,12.14,30.33-1.58,37.8-2.2,33.17.92,35.8s4.33,4.59,2.75,9.21c-1.48,4.32-5.4,4-6.67,8-.81,2.59.53,5.45,6.85,13.06l-.6-.3-5.35-2.7c.09,3.43.47,6.86.33,7.26A11.4,11.4,0,0,0,69.43,230c-5.37-.24-7.45-1.21-13.22-4,4.73,6.37,3.08,11.87,11,12.81A78.549,78.549,0,0,0,70.59,248l6.31-4.07c.43-.28,1.06-.54,1.4-.16a24.88,24.88,0,0,0-6,19,5.48,5.48,0,0,0,.24,1.27,8.479,8.479,0,0,0,.69,1.34A41.351,41.351,0,0,1,75.41,270a17.82,17.82,0,0,1,1.72,12.95l-.85,5.26a5.28,5.28,0,0,0,2.58-3c.09.77.19,1.54.28,2.32l1.92-3.94.66,3.67a32.17,32.17,0,0,1,2.15-7.64,26.352,26.352,0,0,0,1.55-4.1c.51-2.19.21-4.47.17-6.72-.06-3.36,1.68-21.35,1.93-24.7.11-1.46.18-2.68.23-3.74,4.06-2.46-6.66-31.22-1.42-48.94a40.259,40.259,0,0,1,4.34-9.66c4.38-6.65,7.76-6.41,10.33-10.34,5.85-8.92-6.47-18.05-2.33-34.33.68-2.7,2.69-10.58,9.33-15,4.37-2.91,9.09-3.21,9-4.33-.14-1.85-13-2.13-13-2.67s7.59-.25,16.7-1.2c5.64-.59,15.82-1.65,16-3.8.16-2.33-11.49-4.73-11.34-5.33s6.41.83,12,1.84c6.8,1.21,12.43,2,16.29,2.49-.62-4.37,0-5.67.66-6,1-.48,2.29,1.19,5.51,3,2.48,1.35,7.26,3.37,8.49,2,1.39-1.5-2.34-6.5-1.66-7,1.24-.93,13.81,16.39,18,14.33,2.68-1.31,1.11-10.14,2.66-10.33.35,0,.35.41,2.2,2.39a25.341,25.341,0,0,1,2.57,3.15c.21.39.4.8.4.8l.1.21a16.47,16.47,0,0,1,1.4,6.78,70.24,70.24,0,0,1,13.33-17.66c5.77-5.51,7.75-5.41,8.67-5,3.38,1.47,2.05,11.24,3.33,11.33.6,0,.93-2.08,2.72-5.37.3-.55,3.09-5.67,4.28-5.3q1.48.47,0,10.34c22.92-9,46.92-2.44,57.34,13,6.23,9.23,11.75,27.82,5,36.66-1.22,1.59-3.67,4-3,6.34,1.22,4.33,11.69,4.49,11.66,6.33s-9.2,1.12-11,5c-1.88,4.08,8.86,7.77,10.67,16.67,4.47,22-.24,48.83-2.33,56.33-.46,1.62,1.08,2.86,3.07,3.57a86.543,86.543,0,0,0,.27,15.1c.6,5.06,1.76,10.48-.5,15.05a15.579,15.579,0,0,0,4.71-5.18c1.43,5.53-2.53,10.95-3.19,16.63a74.292,74.292,0,0,0,10.71-14.52,17.552,17.552,0,0,0,1.91-4.35,20.3,20.3,0,0,0,.4-4.74c0-4.33,0-8.79-1.56-12.83-.13-.33-.24-.79.05-1a.83.83,0,0,1,.66,0l5.23,1.16a21.84,21.84,0,0,0-5.48-9.18h1.42a20.89,20.89,0,0,0-4.29-4.66,79.049,79.049,0,0,0,9.26,3.64c-.26-2.15-1.79-3.93-3.49-5.28s-3.62-2.39-5.19-3.88c2.11-.19,4.21.29,6.33.33s4.42-.46,5.72-2.13a13.82,13.82,0,0,1-11.47-1.27c.47-1.9,1-3.93,1.76-6.1,4.29-12.8,8.25-13.54,9.67-23.33,1.09-7.54,1.48-13.94,0-22-2.16-6-1.93-42.52,5-57.33C329.56,116.28,323.68,101.61,309.67,85.67Z" fill="none"/></clipPath></defs><g transform="translate(-42.51 -28.653)"><path d="M82.61,226.28,48.31,204l-5.8,7.45v47.02l28.83,39.85,17.33-10.16-6.06-61.88" fill="#e87440"/><path d="M297.2,226.28,331.49,204l5.81,7.45v47.02l-28.84,39.85-17.33-10.16,6.07-61.88" fill="#e87440"/><path d="M92,105.5,166,86l78,3.5L316.5,135l-9.87,100.88L311,252.5l-7.84,73.83c-5.65,8.92-28.93,48.5-34.66,53.17-20,16.32-36.15,27.76-46.77,42.51-3.19,4.42-20.18,15.49-40.18,10.49s-14.2-6.11-24.3-20.5c0,0-38.75-33.25-46.29-35.79-2.59-.88-30.26-42.93-30.06-48.23,0,0-6.9-90.48-4.4-111.48s-12-83-7-90S82.08,109.12,92,105.5Z" fill="#f89f71"/><path d="M241.75,271.75l8.71,15.5L272,298.32l16-5.06s-7.28,59.39-12.34,76.56l-27.81-53.88-28.18-16,2.69-40,19.39,11.76" fill="#da3b2e"/><path d="M155.63,286l-19.65,15.62-34.04,10.31,9.56,4.15h36.75l31.13-17.76Z" fill="#da3b2e"/><g clip-path="url(#a)"><path d="M101.94,311.93c16.44,2.84,42.27-.66,45-1.51,2.21-.68,41.67-18.25,41.67-18.25H205.5S248.1,308,258,308.75c3.27.26,25.38-10.43,25.38-10.43.19-1.88-7,69.63-9.71,94.45l-51.51,41.91L167.35,445l-25-17.67s-15.11-2-26.43-32.66C115.92,394.68,96.51,327.68,101.94,311.93Z" fill="#0f3444"/></g><path d="M308,239.33l10.38-16,12.62-8.9,1.67,16.06-3.45,23.29L325,237.67l-8.5,4.7s-7.41,9.43-8.55,28.41l-4.18-25.22Z" fill="#c02d2c"/><path d="M48,219.39l3.67-5a20,20,0,0,1,16.39,12.24,141.672,141.672,0,0,1,6.94,20v26.15s2.38-32.47-9.54-42.81c-3.86-3.36-11.28-9.88-11.28-9.88" fill="#c02d2c"/><path d="M76.66,223.47c-2.32.88-4.87-.26-7.08-1.38l-5.35-2.7c-.18,2.86,1.56,5.55,3.83,7.28a26.44,26.44,0,0,0,7.75,3.58A26.76,26.76,0,0,1,56.21,226a29.64,29.64,0,0,0,20,11.61A20,20,0,0,0,70.59,248l6.31-4.07c.43-.28,1.06-.54,1.4-.16a24.88,24.88,0,0,0-6,19,5.48,5.48,0,0,0,.24,1.27,8.479,8.479,0,0,0,.69,1.34A41.351,41.351,0,0,1,75.41,270a17.82,17.82,0,0,1,1.72,12.95l-.85,5.26a5.28,5.28,0,0,0,2.58-3l.28,2.32,1.92-3.94.66,3.67a32.17,32.17,0,0,1,2.15-7.64,26.352,26.352,0,0,0,1.55-4.1c.51-2.19.21-4.47.17-6.72-.06-3.36,1.68-21.35,1.93-24.7.8-10.88-.11-8.78-2.35-19.45-.43-2.05-3.43-2.4-4.35-4.29l-1.33.33Z" fill="#1a1818"/><path d="M303.74,227.54a14.12,14.12,0,0,0,17,7.16c-1.3,1.67-3.61,2.18-5.72,2.13s-4.22-.52-6.33-.33c1.57,1.49,3.5,2.54,5.19,3.88s3.23,3.13,3.49,5.28a79.052,79.052,0,0,1-9.26-3.64,20.889,20.889,0,0,1,4.29,4.66H311a21.84,21.84,0,0,1,5.48,9.18l-5.23-1.16a.83.83,0,0,0-.66,0c-.29.21-.18.67-.05,1,1.59,4,1.58,8.5,1.56,12.83a20.3,20.3,0,0,1-.4,4.74,17.549,17.549,0,0,1-1.91,4.35A74.289,74.289,0,0,1,299,292.17c.66-5.68,4.62-11.1,3.19-16.63a15.69,15.69,0,0,1-4.71,5.18c2.26-4.57,1.1-10,.5-15.05a90.755,90.755,0,0,1-.15-17c.48-6.75,1.62-14,6.36-18.83Z" fill="#1a1818"/><path d="M207.33,100.67A70.241,70.241,0,0,0,194,118.33a16.47,16.47,0,0,0-1.4-6.78l-.1-.21s-.19-.41-.4-.8a25.34,25.34,0,0,0-2.57-3.15c-1.85-2-1.85-2.43-2.2-2.39-1.55.19,0,9-2.66,10.33-4.19,2.06-16.76-15.26-18-14.33-.68.5,3.05,5.5,1.66,7-1.23,1.33-6-.69-8.49-2-3.22-1.77-4.47-3.44-5.51-3-.7.33-1.28,1.63-.66,6-3.86-.49-9.49-1.28-16.29-2.49-5.64-1-11.93-2.29-12-1.84s11.5,3,11.34,5.33c-.15,2.15-10.33,3.21-16,3.8-9.11,1-16.69.79-16.7,1.2s12.86.82,13,2.67c.09,1.12-4.63,1.42-9,4.33-6.64,4.42-8.65,12.3-9.33,15-4.14,16.28,8.18,25.41,2.33,34.33-2.57,3.93-6,3.69-10.33,10.34a40.259,40.259,0,0,0-4.34,9.66c-5.28,17.85,5.65,46.91,1.34,49-1.52.74-6-4.5-15-15-8.47-9.88-10.24-13.1-9.34-16,1.27-4,5.19-3.67,6.67-8,1.58-4.62.47-6.51-2.75-9.21s-2.5,2-.92-35.8c1-24.85-12.14-30.33-12.14-30.33-.51-13.92,15.64-36.6,25.48-50.33,16.16-22.57,50.51-20.29,54-20,3.24-8.37,7.65-13.75,12-17.34C170,18.24,221,30.12,272.67,67.67c4.79.4,23.42,2.55,37,18,14,15.94,19.89,30.61,16,39-6.89,14.81-7.12,51.33-5,57.33,1.44,8.06,1.05,14.46,0,22-1.42,9.79-5.38,10.53-9.67,23.33-4.62,13.79-3.15,22.26-7.67,23.67-2.83.88-9.55-.83-8.66-4,2.09-7.5,6.8-34.33,2.33-56.33-1.81-8.9-12.55-12.59-10.67-16.67,1.8-3.88,11-3.27,11-5s-10.44-2-11.66-6.33c-.67-2.37,1.78-4.75,3-6.34,6.75-8.84,1.23-27.43-5-36.66-10.42-15.44-34.42-22-57.34-13q1.48-9.87,0-10.34c-1.19-.37-4,4.75-4.28,5.3-1.79,3.29-2.12,5.41-2.72,5.37-1.28-.09,0-9.86-3.33-11.33C215.08,95.26,213.1,95.16,207.33,100.67Z" fill="#1a1818"/><g clip-path="url(#b)"><path d="M71.42,299.81,38.92,198.83l56,28.54-5.83,70.79Z" fill="#36434c"/><path d="M54.18,184l.01,10.13,43.13,29.19L97,205.33Z" fill="#36434c"/><path d="M56.21,169,94.5,190.57,59,163.5Z" fill="#36434c"/><path d="M121.5,46.5,148.25,72l37.25,61.5v-16S182.5,91,173,75s-35.37-38.5-35.37-38.5Z" fill="#36434c"/><path d="M191,22.5s9.5,6,13,23.5-4.56,62.5-11.53,75c0,0,14.26-15.5,18.15-41s0-51.34,0-51.34Z" fill="#36434c"/><path d="M336.79,174.59l-16.68,14.24-25.32,12.64-3.15,7.93,32.69-9.93,6.46-.72Z" fill="#36434c"/><path d="M323.71,208.2l-31.4,18.61.75,9.72,27.58-17.95Z" fill="#36434c"/><path d="M330,237.5l-15.79-7.83-29.35,24.11,10.05,57.72,31.93-8.17Z" fill="#36434c"/></g><path d="M85.33,217.66,68.71,256.32l2.13,17.35,10.07,54.31,10.84-48.65Z" fill="#f89f71"/><path d="M291.13,224.56l7.24-1.24,10.94,45.06L303.16,321l-5.65-24.7Z" fill="#f89f71"/><path d="M138.33,329.07s20,30.12,25.31,34.19c.8.61,11.8,6.15,19.4,8l-3.52,17.64-18.65,12.33s-28-20.87-31.21-24.37c0,0-19.52-47.51-19.52-60.55l16,6.37Z" fill="#f89f71"/><path d="M233.84,333.85l5.41-.1,38.25-17.81-17.83,55.21L230,397l-22.75-7.75L204,369.67s15.13-9.15,15.67-9.67c2.08-2,8.71-13.75,12.08-20.75Z" fill="#f89f71"/><path d="M112.63,234c-1.08.33-38.54-3.53-23-27.52,9.49-14.62,36.16-15.7,40-15.83,24.93-.85,42.31,17.64,54.33,11,1.64-.91,5.85-3.76,11-3,3.66.53,4.83,2.45,8.33,3,5.35.82,9.89-2.51,11.67-3.67,10.87-7,35.46-8,52.33-4,11,2.64,31.86,6.48,35.34,20.33,0,0-4.67,14.55-7.76,24.92-1.14,3.83-22.66.63-22.66.63-4.5-4-27.33-13-35.37-11.63-13.4,2.24-11.15.27-1.71,2.24,9.62,2,21.76,10.2,21.8,10.48.08.57-14-6.11-27.64-4.8-9,.85-10.83,3.25-12.33,2.21-3.62-2.53-8.37-12.44-13-15.92-1.57-1.18-4.23-1.11-12-1.12-8.31,0-4.66,9.15-20.83,35,0,0,1.65-27.88-2.67-27.32-7.77,1-15.5,2.33-21.91,5.86,0,0-9.34,4.26-9,4.14,0,0,6.38-5.52,9-7.5,4.18-3.22,5.2-5,10.74-5C158.5,226.5,132.5,227.88,112.63,234Z" fill="#da3b2e"/><path d="M216,268.38c-2.67-1.66-17.11-27.64-15-46.38,2.33-20.33,20.56-28.52,35-31.36,53.91-10.59,64.3,30.24,64.09,29.92-3.07-4.56-9.39-7.95-23.38-11.81-15.06-4.16-22.65-8.15-42.91-2.25-12.03,3.5-14.97,8.5-16.3,15.5-1.51,7.92-2,14,4.86,26.54a81.79,81.79,0,0,0,19.39,23.25" fill="#da3b2e"/><path d="M101.94,312.08l-10.66-6a74.32,74.32,0,0,0,1.25,27.84s0-8.89.5-13.63a37.109,37.109,0,0,1,2.19-9Z" fill="#da3b2e"/><path d="M154.5,222.67h2.83L154.5,224l-2-.67s.17-1-5-3.94-20-1.33-25.83,2.31-.88,10.05-.88,10.05L112.63,234s-4.46-10.13,4.37-14.63,18.83-6.22,28.5-2.89C145.5,216.5,153.17,220,154.5,222.67Z" fill="#1a1818"/><path d="M130,217a6.42,6.42,0,0,0-2.62,3.13,6.88,6.88,0,0,0,2.37,7.62,6.66,6.66,0,0,0,3,1.25c4.71-1,7.88-1.46,13.13-2.12.36-.45,2.31-2.5,2.37-4.38a6.4,6.4,0,0,0-2.25-4.87C140.75,214.76,136.63,215.63,130,217Z" fill="#1a1818"/><path d="M222.38,225.38c-.3-.4,5.63-7.23,15-9.88a30.35,30.35,0,0,1,12.5-.75c2.3.34,13,1.9,18.5,10.5a19.812,19.812,0,0,1,1.87,3.75c-4.22,1-7.87,1.79-8,1.38s1.78-.72,2.13-1.88c.63-2.15-4.28-6-8.84-8.07-11.09-5-22.68-.62-24.41.07C225.5,222.73,222.57,225.65,222.38,225.38Z" fill="#1a1818"/><path d="M240.63,216.63a5.94,5.94,0,0,0-4.38,4.12,5.835,5.835,0,0,0,4.75,7.38,18.57,18.57,0,0,1,4.67.74c2.45.5,3.44,1.23,5,1.13,2.19-.15,4.27-2.42,4.87-4.75.75-2.91-.73-6.24-3.75-8.12Z" fill="#1a1818"/><path d="M101.67,220.83s9.5-5.83,26.91-6.33c24.92-.72,33.5,6.33,33.5,6.33h-1.16s-6.5-4.78-25.09-5.5c-11.33-.44-25.86,3.37-28.36,4.87Z" fill="#1a1818"/><path d="M228.63,214.45l-2.38,2.18-1.62,2.62c3.62-2.75,10.6-4.8,21.23-4.7s12.32.4,18.45,1.58l4.44,1.53,2.25,2.47-1.14-4.3s-3.3-3.21-23-3.16C231,212.7,228.63,214.45,228.63,214.45Z" fill="#1a1818"/><path d="M184.67,213l17.33-.33q.33,6,.67,12a182.63,182.63,0,0,1,11,25.66c2.29,6.75,4.52,11.3,5.83,17.17,2.44,1.11,7.09,1.29,8.83,3.33s3.07,4.54,4.67,8.5c2.74,6.8-1.48,16.5-9.33,18.67-5.23,1.45-11.14-.7-15-5.33a18.631,18.631,0,0,1-5.67,5c-9.34,5.25-20,0-21.33-.67-1.78-1.89-5.11-1.33-6.89-3.22-1.56,2.44-1.15,1.28-2.7,3.72-4.29,1.31-8.19.94-12.08.83-3.12-1.2-5.12-3.2-6.33-7a26,26,0,0,1-1.34-14.83c3.17-7.33,14-10.26,15-10.17q2.08-7.29,4.67-15c3.63-10.74,7.6-20.63,11.67-29.66Q184.17,217.34,184.67,213Z" fill="#e87440"/><path d="M177.88,294.88c-5.23-2.61-8-6.09-13.77-5.3a4.31,4.31,0,0,0-2.72,1.17,3.49,3.49,0,0,0-.22,3.77A7.07,7.07,0,0,0,166,298a15.94,15.94,0,0,0,6.08,0c3.92-.58,4.59-.44,8.22-2Z" fill="#141110"/><path d="M208.44,293c3.58-3.79,5.67-4.31,10.87-4a4.09,4.09,0,0,1,3.88,2.38c.31.79.5,2.13-.12,2.71a6.69,6.69,0,0,1-2.23,1.2,11,11,0,0,1-5.31.95c-2.26-.32-3.59-1.61-5.4-2.61Z" fill="#141110"/><path d="M179.38,214.43l2.25,6.82,10-3.41h6.25l9.62,5.48v-8.56l-8.37-2.09-13.5-.67Z" fill="#da3b2e"/><path d="M202.69,208a61.819,61.819,0,0,0,7.71-.64A89.721,89.721,0,0,1,220,202c9-3.7,19.57-4.61,19.7-4.63,15.08-1.83,28,.21,35.13,1.45,10.22,1.76,20,11.68,20,11.68s-3-6.14-4.76-7.84l-2.3-1.72c2.17,0,5.3,2.45,4.53,1.26-4.3-6.55-26.85-22.9-37-22.18-16.68,1.2-38.26,10.57-46.55,17.7-7.27,6.26-7.65,9-8.07,8.81Z" fill="#36434c"/><path d="M174.75,336.5c14.78.88,26.44.05,37.25-.75,9.26-.69,16.22.31,21.84-.46-4.15,4.26-8.77,7.15-15.59,11.71A101.536,101.536,0,0,1,206,354l-34.12-.12a55.231,55.231,0,0,1-14-7.75c-6.14-4.69-14.71-11.89-19.55-15.73C143.67,331.9,167.24,336.05,174.75,336.5Z" fill="#f57f58"/><path d="M123.86,321.75C125,322.88,155.31,328,157,328c3.95-.06,22.14-4,25.9-6.23,3.17,1.86,9.57,5.49,11.1,5.75,1.92-.06,9.24-3.91,10.63-4.87,2.34,1.54,15.71,6.29,18.85,7.37,9.46,3.26,9.46,3.26,15.77,3.75A168.188,168.188,0,0,1,222,338a155,155,0,0,1-31.25,3c-10.14-.12-40.75-6-52.42-10.6Z" fill="#9a2f48"/><path d="M262.28,197.08c-21.43-1.17-27.44.26-37.28,2.59a85.46,85.46,0,0,0-20.33,7.66,28.75,28.75,0,0,0-25.67,0,52.93,52.93,0,0,0-11.33-6c-18.22-6.29-33.65-7-62.34-3.66C91,200.22,73.33,203.33,71,206l4,14a11.72,11.72,0,0,1,6,2.33c2.64,2.08,3.68,5,4.67,9.34a85.85,85.85,0,0,1,2,14.66C88,252,90.84,260,102,269.67a94.84,94.84,0,0,0,57.67-1A36.189,36.189,0,0,0,173,258a85.26,85.26,0,0,0,9-22.67,74.771,74.771,0,0,0,2.34-19.83c1.41-1.5,5.24-2.16,8.58-2.08,4.55.1,6.65.82,8.58,1.75-.27,6.38,1.18,11.45,1.83,15.16,1.28,7.27,4.27,24.26,18,34.34A37.92,37.92,0,0,0,231.67,270c10.56,3,21.05,3,35.33,2.33A41.36,41.36,0,0,0,281.67,266c15.59-10.8,18.2-29.11,18.66-33a11.11,11.11,0,0,1,10-14.33q.35-6.34.67-12.67C299.12,204.08,281,198.1,262.28,197.08Zm-85,35.67c-1.75,9-8.75,24-17.5,30.75s-39.75,6.25-53.5,0C96,258.82,92.5,242.5,90.5,233s-.25-19.75,3.25-23.5c10.5-13.25,59.25-7.25,72.75-3.5s12.5,17.75,10.75,26.75ZM295,231c-1.11,9.1-2.49,17.43-10.25,27.5C278,267.25,245.16,269,231,263.75c-10.6-3.94-16-16.17-18.64-25.5s-2.23-21.91,1-25.9c9.53-14,55.16-9.38,68.89-6.6S296.11,221.9,295,231Z" fill="#292828"/><path d="M191.27,197.58l-6,4.26a1.53,1.53,0,0,1-.55.25l-10.32,2.39c-.41.1-4.32.83-4.68.6a34.47,34.47,0,0,0-7.16-3.74c-5.1-1.71-13.55-3.45-13.68-3.46a145.15,145.15,0,0,0-46.38,1.29C86.92,202,85.17,206.5,85.17,206.5s3.08-6.08,4.91-7.75l2.34-1.67c-2.17,0-5.35,2.34-4.55,1.17,4.43-6.46,14.68-23.09,24.63-25.12,4.77-1,53.53,15.07,53.53,15.07,4.76,2.71,13.49,9.65,13.91,9.43L185,195h0a1.55,1.55,0,0,0,1.74,2.2l7.21-1.68Z" fill="#36434c"/></g></svg>